<svg height="512" viewBox="0 0 58 58" width="512" xmlns="http://www.w3.org/2000/svg"><g id="019---Languages" fill="none"><path id="Shape" d="m58 38v8h-21c.3194954-1.3606329.7338414-2.6972327 1.24-4h2.2c1.207 0 2.2-1.8 2.2-4z" fill="#c03a2b"/><path id="Shape" d="m58 37v3h-14v-4h13c.5522847 0 1 .4477153 1 1z" fill="#393f4a"/><path id="Rectangle-path" d="m47 4h7v12h-7z" fill="#f5efca"/><path id="Rectangle-path" d="m42 4h6v12h-6z" fill="#285680"/><path id="Shape" d="m58 5v10c0 .5522847-.4477153 1-1 1h-4v-12h4c.5522847 0 1 .44771525 1 1z" fill="#c03a2b"/><path id="Shape" d="m42 20h15c.5522847 0 1 .4477153 1 1v10c0 .5522847-.4477153 1-1 1h-15z" fill="#f5efca"/><circle id="Oval" cx="51" cy="26" fill="#c03a2b" r="2"/><path id="Shape" d="m5 .09 4 42c-1.23068962.1961936-2.36616976.7814565-3.24 1.67-1.09 1.08-5.76 2.58-5.76000048 4.24l.00000048-42c-.00116188-2.92703285 2.11322107-5.42623349 5-5.91z" fill="#c03a2b"/><path id="Shape" d="m44 48v3c-.0049422 1.6548028-1.3451972 2.9950578-3 3h-1c-.16-.22-2.86-1.45-3-1.68-.3200894-.5340083-.5976145-1.0924023-.83-1.67-.4735247-1.1587342-.7180313-2.3982466-.72-3.65z" fill="#b19046"/><path id="Shape" d="m44 2v38c0 1.1-.9 3-2 3l-36-.09c-.33213514-.0021132-.66369078.0280282-.99.09h-.01v-42.91c.32986931-.06059363.66461242-.09072051 1-.09h36c1.1032019.0032948 1.9967052.89679813 2 2z" fill="#f0c419"/><path id="Shape" d="m40 53.625c-35.47 0-33.507.031-34.1-.056-2.90870485-.1160038-5.23872588-2.4500247-5.34974059-5.3589242-.1110147-2.9088996 2.03433776-5.4137177 4.92574059-5.7510758 3.895 0-13.42-.084 34.526-.084-2.6297204 3.288709-2.6305509 7.9603562-.002 11.25z" fill="#f5efca"/><path id="Shape" d="m22 49h-17c-.55228475 0-1-.4477153-1-1s.44771525-1 1-1h17c.5522847 0 1 .4477153 1 1s-.4477153 1-1 1z" fill="#cbb292"/><path id="Shape" d="m36.94 22.75c-.9878968 2.3323561-2.6090882 4.3415249-4.68 5.8v-.01c-.9871769-.3317714-2.0116387-.5400227-3.05-.62-1.3889452-.12726-2.7892529-.0361557-4.15.27-1.5576044.4163839-2.9871845 1.2136498-4.16 2.32-1.2675068-.3482358-2.4770567-.8805726-3.59-1.58v-.01c.211888-.6592798.3690866-1.3348994.47-2.02.0352388-.9974146-.0554773-1.995291-.27-2.97-.23-2.06 1.19-3.66 1.36-5.65.0857636-.7438342-.3478355-1.4499813-1.05-1.71-.99-.43-2.12-.45-3.1-.85-1.4190483-.6890017-2.3962052-2.0457465-2.6-3.61.5747374-1.3199608 1.3580786-2.53886662 2.32-3.61 2.061186.02234665 4.1170948-.21280632 6.12-.7 2.1297358-.39097906 3.9335745-1.79894425 4.83-3.77 1.7738278.11516993 3.5072325.58081 5.1 1.37v.01l-.01.01c-1.120374 1.32247431-2.5539332 2.34349847-4.17 2.97-1.2289262.48940907-2.1627576 1.51920734-2.53 2.79-.33 1.83 1.43 2.94 2.97 3.28 1.83.41 3.47 1.43 3.48 3.49-.0359058.866542-.2255205 1.7198078-.56 2.52-.4572741.9451646-.7578609 1.9583787-.89 3-.0151949.6004742.2515034 1.1734562.7207366 1.5484501.4692331.3749938 1.0869204.5087803 1.6692634.3615499.8404274-.1415856 1.6373827-.4733653 2.33-.97.08-.05.16-.1.24-.16.9630802-.6963895 2.0486509-1.2052508 3.2-1.5z" fill="#2fa8cc"/><path id="Shape" d="m17.51 23.93c.2145227.974709.3052388 1.9725854.27 2.97-.1009134.6851006-.258112 1.3607202-.47 2.02v.01c-5.6452582-3.5564913-7.84974761-10.7009059-5.19-16.82.2037948 1.5642535 1.1809517 2.9209983 2.6 3.61.98.4 2.11.42 3.1.85.7021645.2600187 1.1357636.9661658 1.05 1.71-.17 1.99-1.59 3.59-1.36 5.65z" fill="#4fba6f"/><path id="Shape" d="m25.39 4.03c-.8964255 1.97105575-2.7002642 3.37902094-4.83 3.77-2.0029052.48719368-4.058814.72234665-6.12.7 2.5575992-2.86675809 6.2181778-4.50419383 10.06-4.5.3 0 .59.01.89.03z" fill="#b0d3f0"/><path id="Shape" d="m32.26 28.54v.01c-3.3033421 2.3185089-7.4707219 3.0375286-11.36 1.96 1.1728155-1.1063502 2.6023956-1.9036161 4.16-2.32 1.3607471-.3061557 2.7610548-.39726 4.15-.27 1.0383613.0799773 2.0628231.2882286 3.05.62z" fill="#b0d3f0"/><path id="Shape" d="m38 17.5c.0002202 1.8031687-.3601806 3.5881726-1.06 5.25-1.1513491.2947492-2.2369198.8036105-3.2 1.5-.08.06-.16.11-.24.16-.6926173.4966347-1.4895726.8284144-2.33.97-.582343.1472304-1.2000303.0134439-1.6692634-.3615499-.4692332-.3749939-.7359315-.9479759-.7207366-1.5484501.1321391-1.0416213.4327259-2.0548354.89-3 .3344795-.8001922.5240942-1.653458.56-2.52-.01-2.06-1.65-3.08-3.48-3.49-1.54-.34-3.3-1.45-2.97-3.28.3672424-1.27079266 1.3010738-2.30059093 2.53-2.79 1.6160668-.62650153 3.049626-1.64752569 4.17-2.97l.01-.01v-.01c4.6001401 2.2775713 7.5106301 6.9669094 7.51 12.1z" fill="#4fba6f"/><path id="Shape" d="m33 36h-17c-.5522847 0-1-.4477153-1-1s.4477153-1 1-1h17c.5522847 0 1 .4477153 1 1s-.4477153 1-1 1z" fill="#f29c1f"/><path id="Shape" d="m5.35 44.06c.45-.09-1.918-.06 35.65-.06 1.6548028-.0049422 2.9950578-1.3451972 3-3v-1c-.0032948 1.1032019-.8967981 1.9967052-2 2h-36c-2.38953686-.0165793-4.55636125 1.4003423-5.49924886 3.5960482s-.47823775 4.7426443 1.17924886 6.4639518c1.17495169 1.2121563 2.78212713 1.9096776 4.47 1.94h34.85c1.6548028-.0049422 2.9950578-1.3451972 3-3v-3c0-.5522847-.4477153-1-1-1s-1 .4477153-1 1v3c0 .5522847-.4477153 1-1 1h-34.76c-1.11354547.0152091-2.18718723-.4142485-2.98305766-1.1932254-.79587042-.778977-1.24826054-1.8431591-1.25694234-2.9567746.07244537-1.899576 1.47369213-3.4848671 3.35-3.79zm34.077 9.04c-.038-.065-.074-.131-.11-.2.037.067.071.133.11.2z" fill="#e64c3c"/><path id="Shape" d="m15.553 57.893-2.106-1.053c-.2814108-.1406214-.6125892-.1406214-.894 0l-2.106 1.053c-.3097434.1547798-.6775146.138308-.972181-.0435421s-.47428805-.5031958-.474819-.8494579v-9h8v9c-.0005309.3462621-.1801526.6676078-.474819.8494579s-.6624376.1983219-.972181.0435421z" fill="#c03a2b"/><path id="Shape" d="m58 44v3c0 .5522847-.4477153 1-1 1h-19.0000002c-.0002932-1.3803046.296422-2.7445125.8700002-4z" fill="#f0c419"/></g></svg>