<svg height="512pt" viewBox="1 1 511.99998 511.99998" width="512pt" xmlns="http://www.w3.org/2000/svg"><path d="m512 256c0 61.285156-21.535156 117.550781-57.46875 161.625-12.332031 15.128906-26.351562 28.828125-41.796875 40.792969-5.328125 4.136719-10.835937 8.078125-16.488281 11.785156-40.28125 26.425781-88.460938 41.796875-140.246094 41.796875s-99.964844-15.371094-140.246094-41.796875c-5.652344-3.707031-11.160156-7.648437-16.488281-11.785156-15.445313-11.964844-29.464844-25.664063-41.796875-40.792969-35.933594-44.074219-57.46875-100.339844-57.46875-161.625s21.535156-117.550781 57.46875-161.625c25.121094-30.824219 57.28125-55.691406 94.042969-72.148438 31.898437-14.285156 67.269531-22.226562 104.488281-22.226562s72.589844 7.941406 104.488281 22.226562c36.761719 16.457032 68.921875 41.324219 94.042969 72.148438 35.933594 44.074219 57.46875 100.339844 57.46875 161.625zm0 0" fill="#ff2751"/><path d="m454.53125 56.195312v361.429688c-12.332031 15.128906-26.351562 28.828125-41.796875 40.792969-5.328125 4.136719-10.835937 8.078125-16.488281 11.785156-40.28125 26.425781-88.460938 41.796875-140.246094 41.796875s-99.964844-15.371094-140.246094-41.796875c-5.652344-3.707031-11.160156-7.648437-16.488281-11.785156-15.445313-11.964844-29.464844-25.664063-41.796875-40.792969v-361.429688c0-18.757812 15.203125-33.96875 33.96875-33.96875h329.113281c18.765625 0 33.980469 15.210938 33.980469 33.96875zm0 0" fill="#f4ca19"/><path d="m412.734375 64.019531v394.398438c-5.328125 4.136719-10.835937 8.078125-16.488281 11.785156h-280.492188c-5.652344-3.707031-11.160156-7.648437-16.488281-11.785156v-394.398438zm0 0" fill="#e6e6e6"/><path d="m341.878906 95.367188h-171.765625c-9.699219 0-17.5625-7.863282-17.5625-17.5625v-50.558594c0-9.695313 7.863281-17.558594 17.5625-17.558594h171.765625c9.699219 0 17.5625 7.863281 17.5625 17.558594v50.558594c0 9.699218-7.863281 17.5625-17.5625 17.5625zm0 0" fill="#31474c"/><path d="m360.507812 174.167969-11.152343-2.003907c-8.820313-15.976562-45.949219-33.742187-82.210938-35.753906-.957031-.050781-1.867187.152344-2.671875.554688-1.640625.8125-2.820312 2.453125-2.964844 4.410156-.195312 2.632812-.429687 5.285156-.585937 5.285156h-.066406c-10.578125-.085937-20.933594.460938-30.332031 1.644532-.027344.007812-.0625.011718-.089844.015624-1.867188.242188-3.679688.023438-5.332032-.558593v-28.347657c0-3.261718-2.644531-5.90625-5.90625-5.90625-3.265624 0-5.910156 2.644532-5.910156 5.90625v.941407c-.699218-.199219-1.449218-.265625-2.222656-.167969-13.632812 1.738281-23.636719 6.105469-30.972656 11.683594v-2.898438c0-1.511718.613281-2.875 1.605468-3.867187.984376-.992188 2.355469-1.597657 3.863282-1.597657v-15.8125c0-4.253906-3.449219-7.699218-7.699219-7.699218h-23.246094c-4.070312 0-7.398437 3.152344-7.683593 7.148437-.015626.179688-.019532.367188-.019532.554688v72.78125c0 4.171875 3.378906 7.554687 7.554688 7.554687h8.421875c4.023437 7.605469 12.015625 12.792969 21.21875 12.792969 9.207031 0 17.195312-5.1875 21.21875-12.792969h79.992187l.066406-.015625c4.023438 7.617188 12.019532 12.808594 21.230469 12.808594 13.066407 0 23.6875-10.449219 23.980469-23.445313l.90625-.214843c-.015625.1875-.035156.371093-.039062.558593-.046876 4.125 3.285156 7.496094 7.410156 7.496094h20.65625c3.074218 0 5.570312-2.492187 5.570312-5.570312-.003906-2.699219-1.933594-5.007813-4.589844-5.484375zm0 0" fill="#b3b3b3"/><path d="m194.976562 278.007812h-69.019531v-69.019531h69.019531zm-48.121093-20.898437h27.222656v-27.222656h-27.222656zm0 0" fill="#18282d"/><path d="m216.855469 233.046875h153.59375v20.898437h-153.59375zm0 0" fill="#18282d"/><path d="m161.097656 264.789062-31.644531-39.828124 13.90625-11.050782 15.285156 19.234375 28.332031-49.867187 15.445313 8.777344zm0 0" fill="#39d365"/><path d="m194.976562 366.980469h-69.019531v-69.023438h69.019531zm-48.121093-20.898438h27.222656v-27.226562h-27.222656zm0 0" fill="#18282d"/><path d="m216.855469 322.019531h153.59375v20.898438h-153.59375zm0 0" fill="#18282d"/><path d="m161.097656 353.757812-31.644531-39.828124 13.90625-11.046876 15.285156 19.234376 28.332031-49.867188 15.445313 8.773438zm0 0" fill="#39d365"/><g fill="#18282d"><path d="m194.976562 455.949219h-69.019531v-69.019531h69.019531zm-48.121093-20.898438h27.222656v-27.222656h-27.222656zm0 0"/><path d="m216.855469 410.992188h153.59375v20.898437h-153.59375zm0 0"/><path d="m220.210938 52.527344c0 8.65625-7.019532 15.671875-15.675782 15.671875-8.652344 0-15.671875-7.015625-15.671875-15.671875s7.019531-15.671875 15.671875-15.671875c8.65625 0 15.675782 7.015625 15.675782 15.671875zm0 0"/><path d="m323.128906 52.527344c0 8.65625-7.015625 15.671875-15.671875 15.671875s-15.671875-7.015625-15.671875-15.671875 7.015625-15.671875 15.671875-15.671875 15.671875 7.015625 15.671875 15.671875zm0 0"/></g></svg>