<?xml version="1.0" standalone="no"?>
<!DOCTYPE svg PUBLIC "-//W3C//DTD SVG 20010904//EN"
 "http://www.w3.org/TR/2001/REC-SVG-20010904/DTD/svg10.dtd">
<svg version="1.0" xmlns="http://www.w3.org/2000/svg"
 width="1248.000000pt" height="1280.000000pt" viewBox="0 0 1248.000000 1280.000000"
 preserveAspectRatio="xMidYMid meet">
<metadata>
Created by potrace 1.15, written by Peter Selinger 2001-2017
</metadata>
<g transform="translate(0.000000,1280.000000) scale(0.100000,-0.100000)"
fill="#000000" stroke="none">
<path d="M6149 12782 c-298 -99 -505 -551 -549 -1197 -5 -82 -10 -162 -10
-177 0 -28 -1 -28 -65 -28 -252 0 -632 -77 -920 -185 -518 -195 -987 -573
-1341 -1081 -263 -377 -487 -880 -609 -1364 -70 -278 -94 -434 -125 -810 -173
-2091 -419 -3500 -765 -4391 -147 -377 -377 -728 -585 -892 -241 -190 -449
-256 -928 -296 -133 -11 -173 -31 -219 -108 -24 -42 -28 -58 -28 -128 0 -63 5
-89 22 -121 29 -54 84 -101 130 -111 50 -10 12116 -10 12166 0 46 10 101 57
130 111 17 32 22 58 22 121 0 70 -4 86 -28 128 -44 75 -86 96 -208 108 -372
34 -510 65 -690 154 -120 59 -200 116 -303 215 -245 235 -432 569 -611 1091
-297 863 -531 2305 -690 4249 -30 366 -66 579 -145 850 -231 799 -674 1477
-1245 1905 -437 327 -981 522 -1536 551 l-126 7 -7 151 c-22 455 -107 789
-260 1019 -132 200 -309 284 -477 229z"/>
<path d="M5000 1593 c-6 -21 -17 -81 -25 -133 -83 -535 213 -1092 705 -1327
137 -65 239 -97 385 -118 382 -56 776 72 1058 344 319 307 458 753 369 1181
l-18 85 -1231 3 -1232 2 -11 -37z"/>
</g>
</svg>
